<?xml version="1.0" encoding="UTF-8" standalone="no"?>
<!-- Created with Inkscape (http://www.inkscape.org/) -->

<svg
   width="1024"
   height="1024"
   viewBox="0 0 270.93333 270.93333"
   version="1.1"
   id="svg1"
   xml:space="preserve"
   inkscape:version="1.4.4 (dcaf3e7, 2026-05-05)"
   sodipodi:docname="logo.svg"
   xmlns:inkscape="http://www.inkscape.org/namespaces/inkscape"
   xmlns:sodipodi="http://sodipodi.sourceforge.net/DTD/sodipodi-0.dtd"
   xmlns="http://www.w3.org/2000/svg"
   xmlns:svg="http://www.w3.org/2000/svg"><sodipodi:namedview
     id="namedview1"
     pagecolor="#ffffff"
     bordercolor="#000000"
     borderopacity="0.25"
     inkscape:showpageshadow="2"
     inkscape:pageopacity="0.0"
     inkscape:pagecheckerboard="0"
     inkscape:deskcolor="#d1d1d1"
     inkscape:document-units="mm"
     inkscape:zoom="0.33132489"
     inkscape:cx="479.89151"
     inkscape:cy="123.74561"
     inkscape:window-width="1553"
     inkscape:window-height="1007"
     inkscape:window-x="2123"
     inkscape:window-y="55"
     inkscape:window-maximized="0"
     inkscape:current-layer="layer1" /><defs
     id="defs1"><clipPath
       id="iconifyReact99"><path
         fill="#ffffff"
         d="M 0,0 H 32 V 32 H 0 Z"
         id="path3" /></clipPath></defs><rect
     style="color:#4a5565;fill:#4a5565;fill-opacity:1;stroke-width:2.14691"
     id="rect2"
     width="270.93332"
     height="270.93332"
     x="75.416138"
     y="112.1852"
     inkscape:label="rect2"
     transform="translate(-75.41614,-112.1852)" /><g
     inkscape:label="Layer 1"
     inkscape:groupmode="layer"
     id="layer1"
     transform="translate(-75.416141,-112.1852)"><g
       id="g3"
       transform="translate(4.938702,2.9192153)"
       style="fill:#ffffff;fill-opacity:1"><g
         id="g2"
         transform="matrix(1.0296208,0,0,1.0296208,-14.847817,18.988598)"
         style="fill:#ffffff;fill-opacity:1"><path
           fill="currentColor"
           d="M 12,0 C 8.96,0 6.21,1.23 4.22,3.22 L 5.63,4.63 A 8.95,8.95 0 0 1 12,2 c 2.5,0 4.74,1 6.36,2.64 L 19.77,3.23 C 17.79,1.23 15.04,0 12,0 M 7.05,6.05 8.46,7.46 a 5.02,5.02 0 0 1 7.08,0 L 16.95,6.05 A 6.98,6.98 0 0 0 12,4 C 10.07,4 8.32,4.78 7.05,6.05 M 12,15 a 2,2 0 0 1 -2,-2 2,2 0 0 1 2,-2 2,2 0 0 1 2,2 2,2 0 0 1 -2,2 M 15,9 H 9 a 1,1 0 0 0 -1,1 v 12 a 1,1 0 0 0 1,1 h 6 a 1,1 0 0 0 1,-1 V 10 A 1,1 0 0 0 15,9"
           id="path1-0"
           style="color:#4a5565;fill:#ffffff;fill-opacity:1"
           transform="matrix(5.6020152,0,0,5.6020152,65.05457,197.46785)" /><g
           style="color:#4a5565;fill:#ffffff;fill-opacity:1"
           id="g6"
           transform="matrix(9.9328242,0,0,9.9328242,121.90853,92.312279)"><path
             fill="currentColor"
             d="m 11.336,2.253 a 1,1 0 0 1 1.328,0 l 9,8 a 1,1 0 0 1 -1.328,1.494 L 20,11.45 V 19 a 2,2 0 0 1 -2,2 H 6 A 2,2 0 0 1 4,19 V 11.45 L 3.664,11.747 A 1,1 0 0 1 2.336,10.253 Z M 6,9.67 V 19 h 3 v -5 a 1,1 0 0 1 1,-1 h 4 a 1,1 0 0 1 1,1 v 5 h 3 V 9.671 L 12,4.338 Z M 13,19 v -4 h -2 v 4 z"
             id="path1-3"
             style="fill:#ffffff;fill-opacity:1" /></g><text
           xml:space="preserve"
           style="font-style:normal;font-variant:normal;font-weight:bold;font-stretch:normal;font-size:40.3757px;font-family:'JetBrains Mono';-inkscape-font-specification:'JetBrains Mono Bold';writing-mode:lr-tb;direction:ltr;fill:#ffffff;fill-opacity:1;stroke-width:2.16298"
           x="203.32907"
           y="203.35497"
           id="text1"><tspan
             sodipodi:role="line"
             id="tspan1"
             style="font-style:normal;font-variant:normal;font-weight:bold;font-stretch:normal;font-size:40.3757px;font-family:'DIN Alternate';-inkscape-font-specification:'DIN Alternate Bold';fill:#ffffff;fill-opacity:1;stroke-width:2.16298"
             x="203.32907"
             y="203.35497">PHC</tspan></text></g></g></g></svg>
