<?xml version="1.0" encoding="UTF-8" standalone="no"?>
<svg
   width="1024"
   height="1024"
   viewBox="0 0 1024 1024"
   version="1.1"
   id="svg18"
   sodipodi:docname="logo-2.svg"
   inkscape:version="1.4.4 (dcaf3e7, 2026-05-05)"
   xmlns:inkscape="http://www.inkscape.org/namespaces/inkscape"
   xmlns:sodipodi="http://sodipodi.sourceforge.net/DTD/sodipodi-0.dtd"
   xmlns="http://www.w3.org/2000/svg"
   xmlns:svg="http://www.w3.org/2000/svg">
  <sodipodi:namedview
     id="namedview18"
     pagecolor="#ffffff"
     bordercolor="#000000"
     borderopacity="0.25"
     inkscape:showpageshadow="2"
     inkscape:pageopacity="0.0"
     inkscape:pagecheckerboard="0"
     inkscape:deskcolor="#d1d1d1"
     inkscape:zoom="0.18168641"
     inkscape:cx="-8.2559837"
     inkscape:cy="-145.85571"
     inkscape:window-width="1512"
     inkscape:window-height="846"
     inkscape:window-x="0"
     inkscape:window-y="33"
     inkscape:window-maximized="1"
     inkscape:current-layer="svg18" />
  <defs
     id="defs13">
    <inkscape:path-effect
       effect="fillet_chamfer"
       id="path-effect20"
       is_visible="true"
       lpeversion="1"
       nodesatellites_param="F,0,0,1,0,18,0,1 @ F,0,0,1,0,18,0,1 @ F,0,0,1,0,30,0,1 @ F,0,0,1,0,0,0,1 @ F,0,0,1,0,30,0,1"
       radius="0"
       unit="px"
       method="auto"
       mode="F"
       chamfer_steps="1"
       flexible="false"
       use_knot_distance="true"
       apply_no_radius="true"
       apply_with_radius="true"
       only_selected="false"
       hide_knots="false" />
    <inkscape:path-effect
       effect="fillet_chamfer"
       id="path-effect19"
       is_visible="true"
       lpeversion="1"
       nodesatellites_param="F,0,0,1,0,0,0,1 @ F,0,0,1,0,30.051782,0,1 @ F,0,0,1,0,0,0,1 @ F,0,0,1,0,0,0,1 @ F,0,0,1,0,0,0,1"
       radius="0"
       unit="px"
       method="auto"
       mode="F"
       chamfer_steps="1"
       flexible="false"
       use_knot_distance="true"
       apply_no_radius="true"
       apply_with_radius="true"
       only_selected="false"
       hide_knots="false" />
    <linearGradient
       id="bg"
       x1="51.200001"
       y1="0"
       x2="972.79999"
       y2="1024"
       gradientUnits="userSpaceOnUse">
      <stop
         offset="0"
         stop-color="#4a39d1"
         id="stop1" />
      <stop
         offset="0.5"
         stop-color="#6c30bd"
         id="stop2" />
      <stop
         offset="1"
         stop-color="#922fc4"
         id="stop3" />
    </linearGradient>
    <radialGradient
       id="sheen"
       cx="512"
       cy="0"
       r="921.59998"
       fx="512"
       fy="0"
       gradientUnits="userSpaceOnUse">
      <stop
         offset="0"
         stop-color="#ffffff"
         stop-opacity="0.16"
         id="stop4" />
      <stop
         offset="0.5"
         stop-color="#ffffff"
         stop-opacity="0"
         id="stop5" />
    </radialGradient>
    <radialGradient
       id="halo"
       cx="512"
       cy="612"
       r="132.40001"
       fx="512"
       fy="612"
       gradientUnits="userSpaceOnUse">
      <stop
         offset="0"
         stop-color="#ffe6ad"
         stop-opacity="0.85"
         id="stop6" />
      <stop
         offset="0.5"
         stop-color="#ffb24d"
         stop-opacity="0.35"
         id="stop7" />
      <stop
         offset="1"
         stop-color="#ffb24d"
         stop-opacity="0"
         id="stop8" />
    </radialGradient>
    <radialGradient
       id="bulb"
       cx="502.72"
       cy="591.76001"
       r="81.199997"
       fx="502.72"
       fy="591.76001"
       gradientUnits="userSpaceOnUse">
      <stop
         offset="0"
         stop-color="#fffaf0"
         id="stop9" />
      <stop
         offset="0.4"
         stop-color="#ffd56b"
         id="stop10" />
      <stop
         offset="1"
         stop-color="#ff9f2e"
         id="stop11" />
    </radialGradient>
    <linearGradient
       id="house"
       x1="410.68811"
       y1="398.9162"
       x2="567.32263"
       y2="790.50256"
       gradientTransform="scale(1.0470232,0.95508863)"
       gradientUnits="userSpaceOnUse">
      <stop
         offset="0"
         stop-color="#ffffff"
         id="stop12" />
      <stop
         offset="1"
         stop-color="#e6e9f6"
         id="stop13" />
    </linearGradient>
    <filter
       id="softShadow"
       x="-0.067783505"
       y="-0.074713595"
       width="1.1355669"
       height="1.1494294">
      <feDropShadow
         dx="0"
         dy="18"
         stdDeviation="22"
         flood-color="#170a38"
         flood-opacity="0.38" />
    </filter>
    <filter
       id="haloBlur"
       x="-0.061016949"
       y="-0.061016949"
       width="1.1220339"
       height="1.1220339">
      <feGaussianBlur
         stdDeviation="6"
         id="feGaussianBlur13" />
    </filter>
  </defs>
  <rect
     x="0"
     y="0"
     width="1024"
     height="1024"
     fill="url(#bg)"
     id="rect13"
     style="fill:url(#bg)" />
  <rect
     x="0"
     y="0"
     width="1024"
     height="1024"
     fill="url(#sheen)"
     id="rect14"
     style="fill:url(#sheen)" />
  <path
     id="path19"
     style="fill:#ffffff;stroke-width:52.6"
     inkscape:transform-center-x="-1.7965983"
     inkscape:transform-center-y="-38.944882"
     d="M 749.32951,820.89015 H 274.6705 a 18,18 45 0 1 -18,-18 V 555.88959 a 65.989624,65.989624 114.44735 0 1 22.60508,-49.72335 L 512,303.10985 744.72443,506.16624 a 65.989623,65.989623 65.552651 0 1 22.60508,49.72335 v 247.00056 a 18,18 135 0 1 -18,18 z"
     sodipodi:nodetypes="cccccc"
     inkscape:path-effect="#path-effect20"
     inkscape:original-d="M 767.32951,820.89015 H 256.6705 V 525.88959 L 512,303.10985 767.32951,525.88959 Z"
     transform="matrix(1.2956405,0,0,1.2956405,-150.958,-159.03645)" />
  <g
     fill="none"
     stroke="#ffffff"
     stroke-linecap="round"
     id="g16"
     transform="translate(0,-112)">
    <path
       d="m 451,337 a 70,70 0 0 1 122,0"
       stroke-width="27"
       opacity="0.92"
       id="path14" />
    <path
       d="m 418,318 a 108,108 0 0 1 188,0"
       stroke-width="27"
       opacity="0.5"
       id="path15" />
    <path
       d="m 386,299 a 146,146 0 0 1 252,0"
       stroke-width="27"
       opacity="0.24"
       id="path16" />
  </g>
  <path
     d="m 260.39172,778.42783 -0.31581,0.31582 h -0.31581 q -2.84231,0 -5.36881,-0.63163 -2.21068,-0.94743 -4.10556,-2.21068 -1.89487,-1.57906 -3.47393,-3.47394 -1.26325,-1.89487 -2.21069,-4.10555 -0.63162,-2.5265 -0.63162,-5.36881 v -0.31581 l 0.31581,-0.31582 h 16.10642 v 0 q 0,0 0,0 0,0 0,0 0,0 0,0 0,0 0,0 0,0 0,0 v 0 z m -1.26325,0 v -16.10642 0 q 0,0 0,0 0,0 0,0 0,0 0,0 0,0 0,0 0,0 0,0 v 0 h 16.10642 l 0.31582,0.31582 v 0.31581 q 0,2.84231 -0.94744,5.36881 -0.63162,2.21068 -2.21069,4.10555 -1.26324,1.89488 -3.15812,3.47394 -1.89487,1.26325 -4.42137,2.21068 -2.21068,0.63163 -5.05299,0.63163 h -0.31581 z m 0,-30.94959 0.31582,-0.31581 h 0.31581 q 2.84231,0 5.05299,0.94744 2.5265,0.63162 4.42137,2.21068 1.89488,1.26325 3.15812,3.15812 1.57907,1.89488 2.21069,4.42137 0.94744,2.21069 0.94744,5.053 v 0.31581 l -0.31582,0.31581 h -16.10642 v 0 q 0,0 0,0 0,0 0,0 0,0 0,0 0,0 0,0 0,0 0,0 v 0 z m 1.26325,0 v 16.10642 0 q 0,0 0,0 0,0 0,0 0,0 0,0 0,0 0,0 0,0 0,0 v 0 H 244.2853 l -0.31581,-0.31581 v -0.31581 q 0,-2.84231 0.63162,-5.053 0.94744,-2.52649 2.21069,-4.42137 1.57906,-1.89487 3.47393,-3.15812 1.89488,-1.57906 4.10556,-2.21068 2.5265,-0.94744 5.36881,-0.94744 h 0.31581 z m 0,-0.63162 -0.31581,0.31581 h -0.31581 q -2.84231,0 -5.36881,-0.63162 -2.21068,-0.94744 -4.10556,-2.21069 -1.89487,-1.57906 -3.47393,-3.47393 -1.26325,-1.89488 -2.21069,-4.10556 -0.63162,-2.5265 -0.63162,-5.36881 v -0.31581 l 0.31581,-0.31581 h 16.10642 v 0 q 0,0 0,0 0,0 0,0 0,0 0,0 0,0 0,0 0,0 0,0 v 0 z m -1.26325,0 v -16.10642 0 q 0,0 0,0 0,0 0,0 0,0 0,0 0,0 0,0 0,0 0,0 v 0 h 16.10642 l 0.31582,0.31581 v 0.31581 q 0,2.84231 -0.94744,5.36881 -0.63162,2.21068 -2.21069,4.10556 -1.26324,1.89487 -3.15812,3.47393 -1.89487,1.26325 -4.42137,2.21069 -2.21068,0.63162 -5.05299,0.63162 h -0.31581 z m 0,-30.94959 0.31582,-0.31581 h 0.31581 q 2.84231,0 5.05299,0.94743 2.5265,0.63163 4.42137,2.21069 1.89488,1.26325 3.15812,3.15812 1.57907,1.89487 2.21069,4.42137 0.94744,2.21068 0.94744,5.05299 v 0.31582 l -0.31582,0.31581 h -16.10642 v 0 q 0,0 0,0 0,0 0,0 0,0 0,0 0,0 0,0 0,0 0,0 v 0 z m 1.26325,0 v 16.10642 0 q 0,0 0,0 0,0 0,0 0,0 0,0 0,0 0,0 0,0 0,0 v 0 H 244.2853 l -0.31581,-0.31581 v -0.31582 q 0,-2.84231 0.63162,-5.05299 0.94744,-2.5265 2.21069,-4.42137 1.57906,-1.89487 3.47393,-3.15812 1.89488,-1.57906 4.10556,-2.21069 2.5265,-0.94743 5.36881,-0.94743 h 0.31581 z m 0,-0.63163 -0.31581,0.31582 h -0.31581 q -2.84231,0 -5.36881,-0.63163 -2.21068,-0.94744 -4.10556,-2.21068 -1.89487,-1.57906 -3.47393,-3.47394 -1.26325,-1.89487 -2.21069,-4.10556 -0.63162,-2.52649 -0.63162,-5.3688 v -0.31581 l 0.31581,-0.31582 h 16.10642 v 0 q 0,0 0,0 0,0 0,0 0,0 0,0 0,0 0,0 0,0 0,0 v 0 z m -1.26325,0 v -16.10642 0 q 0,0 0,0 0,0 0,0 0,0 0,0 0,0 0,0 0,0 0,0 v 0 h 16.10642 l 0.31582,0.31582 v 0.31581 q 0,2.84231 -0.94744,5.3688 -0.63162,2.21069 -2.21069,4.10556 -1.26324,1.89488 -3.15812,3.47394 -1.89487,1.26324 -4.42137,2.21068 -2.21068,0.63163 -5.05299,0.63163 h -0.31581 z m 0,-30.94959 L 259.44429,684 h 0.31581 q 2.84231,0 5.05299,0.94744 2.5265,0.63162 4.42137,2.21068 1.89488,1.26325 3.15812,3.15812 1.57907,1.89488 2.21069,4.42137 0.94744,2.21069 0.94744,5.053 v 0.31581 l -0.31582,0.31581 h -16.10642 v 0 q 0,0 0,0 0,0 0,0 0,0 0,0 0,0 0,0 0,0 0,0 v 0 z m 1.26325,0 v 16.10642 0 q 0,0 0,0 0,0 0,0 0,0 0,0 0,0 0,0 0,0 0,0 v 0 H 244.2853 l -0.31581,-0.31581 v -0.31581 q 0,-2.84231 0.63162,-5.053 0.94744,-2.52649 2.21069,-4.42137 1.57906,-1.89487 3.47393,-3.15812 1.89488,-1.57906 4.10556,-2.21068 Q 256.91779,684 259.7601,684 h 0.31581 z m 0,-0.63162 L 260.07591,684 h -0.31581 q -2.84231,0 -5.36881,-0.63162 -2.21068,-0.94744 -4.10556,-2.21069 -1.89487,-1.57906 -3.47393,-3.47393 -1.26325,-1.89488 -2.21069,-4.10556 -0.63162,-2.5265 -0.63162,-5.36881 v -0.31581 l 0.31581,-0.31581 h 16.10642 v 0 q 0,0 0,0 0,0 0,0 0,0 0,0 0,0 0,0 0,0 0,0 v 0 z m -1.26325,0 v -16.10642 0 q 0,0 0,0 0,0 0,0 0,0 0,0 0,0 0,0 0,0 0,0 v 0 h 16.10642 l 0.31582,0.31581 v 0.31581 q 0,2.84231 -0.94744,5.36881 -0.63162,2.21068 -2.21069,4.10556 -1.26324,1.89487 -3.15812,3.47393 -1.89487,1.26325 -4.42137,2.21069 Q 262.60241,684 259.7601,684 h -0.31581 z m 0,-30.94959 0.31582,-0.31582 h 0.31581 q 2.84231,0 5.05299,0.94744 2.5265,0.63163 4.42137,2.21069 1.89488,1.26324 3.15812,3.15812 1.57907,1.89487 2.21069,4.42137 0.94744,2.21068 0.94744,5.05299 v 0.31581 l -0.31582,0.31582 h -16.10642 v 0 q 0,0 0,0 0,0 0,0 0,0 0,0 0,0 0,0 0,0 0,0 v 0 z m 1.26325,0 v 16.10642 0 q 0,0 0,0 0,0 0,0 0,0 0,0 0,0 0,0 0,0 0,0 v 0 H 244.2853 l -0.31581,-0.31582 v -0.31581 q 0,-2.84231 0.63162,-5.05299 0.94744,-2.5265 2.21069,-4.42137 1.57906,-1.89488 3.47393,-3.15812 1.89488,-1.57906 4.10556,-2.21069 2.5265,-0.94744 5.36881,-0.94744 h 0.31581 z m 0,-0.63163 -0.31581,0.31581 h -0.31581 q -2.84231,0 -5.36881,-0.63162 -2.21068,-0.94744 -4.10556,-2.21068 -1.89487,-1.57907 -3.47393,-3.47394 -1.26325,-1.89487 -2.21069,-4.10556 -0.63162,-2.52649 -0.63162,-5.3688 v -0.31582 l 0.31581,-0.31581 h 16.10642 v 0 q 0,0 0,0 0,0 0,0 0,0 0,0 0,0 0,0 0,0 0,0 v 0 z m -1.26325,0 v -16.10642 0 q 0,0 0,0 0,0 0,0 0,0 0,0 0,0 0,0 0,0 0,0 v 0 h 16.10642 l 0.31582,0.31581 v 0.31582 q 0,2.84231 -0.94744,5.3688 -0.63162,2.21069 -2.21069,4.10556 -1.26324,1.89487 -3.15812,3.47394 -1.89487,1.26324 -4.42137,2.21068 -2.21068,0.63162 -5.05299,0.63162 h -0.31581 z m 0,-30.94959 0.31582,-0.31581 h 0.31581 q 2.84231,0 5.05299,0.94744 2.5265,0.63162 4.42137,2.21068 1.89488,1.26325 3.15812,3.15812 1.57907,1.89488 2.21069,4.42137 0.94744,2.21069 0.94744,5.053 v 0.31581 l -0.31582,0.31581 h -16.10642 v 0 q 0,0 0,0 0,0 0,0 0,0 0,0 0,0 0,0 0,0 0,0 v 0 z m 1.26325,0 v 16.10642 0 q 0,0 0,0 0,0 0,0 0,0 0,0 0,0 0,0 0,0 0,0 v 0 H 244.2853 l -0.31581,-0.31581 v -0.31581 q 0,-2.84231 0.63162,-5.053 0.94744,-2.52649 2.21069,-4.42137 1.57906,-1.89487 3.47393,-3.15812 1.89488,-1.57906 4.10556,-2.21068 2.5265,-0.94744 5.36881,-0.94744 h 0.31581 z m 0,-0.63162 -0.31581,0.31581 h -0.31581 q -2.84231,0 -5.36881,-0.63163 -2.21068,-0.94743 -4.10556,-2.21068 -1.89487,-1.57906 -3.47393,-3.47393 -1.26325,-1.89488 -2.21069,-4.10556 -0.63162,-2.5265 -0.63162,-5.36881 v -0.31581 l 0.31581,-0.31581 h 16.10642 v 0 q 0,0 0,0 0,0 0,0 0,0 0,0 0,0 0,0 0,0 0,0 v 0 z m -1.26325,0 v -16.10642 0 q 0,0 0,0 0,0 0,0 0,0 0,0 0,0 0,0 0,0 0,0 v 0 h 16.10642 l 0.31582,0.31581 v 0.31581 q 0,2.84231 -0.94744,5.36881 -0.63162,2.21068 -2.21069,4.10556 -1.26324,1.89487 -3.15812,3.47393 -1.89487,1.26325 -4.42137,2.21068 -2.21068,0.63163 -5.05299,0.63163 h -0.31581 z m 0,-30.94959 0.31582,-0.31582 h 0.31581 q 2.84231,0 5.05299,0.94744 2.5265,0.63162 4.42137,2.21069 1.89488,1.26324 3.15812,3.15812 1.57907,1.89487 2.21069,4.42137 0.94744,2.21068 0.94744,5.05299 v 0.31581 l -0.31582,0.31582 h -16.10642 v 0 q 0,0 0,0 0,0 0,0 0,0 0,0 0,0 0,0 0,0 0,0 v 0 z m 1.26325,0 v 16.10642 0 q 0,0 0,0 0,0 0,0 0,0 0,0 0,0 0,0 0,0 0,0 v 0 H 244.2853 l -0.31581,-0.31582 v -0.31581 q 0,-2.84231 0.63162,-5.05299 0.94744,-2.5265 2.21069,-4.42137 1.57906,-1.89488 3.47393,-3.15812 1.89488,-1.57907 4.10556,-2.21069 2.5265,-0.94744 5.36881,-0.94744 h 0.31581 z m 31.58122,125.69323 -0.31581,0.31582 h -0.31582 q -2.84231,0 -5.3688,-0.63163 -2.21069,-0.94744 -4.10556,-2.21068 -1.89487,-1.57906 -3.47393,-3.47394 -1.26325,-1.89487 -2.21069,-4.10556 -0.63162,-2.52649 -0.63162,-5.3688 v -0.31581 l 0.31581,-0.31582 h 16.10642 v 0 q 0,0 0,0 0,0 0,0 0,0 0,0 0,0 0,0 0,0 0,0 v 0 z m -1.26325,0 v -16.10642 0 q 0,0 0,0 0,0 0,0 0,0 0,0 0,0 0,0 0,0 0,0 v 0 h 16.10642 l 0.31581,0.31582 v 0.31581 q 0,2.84231 -0.94744,5.3688 -0.63162,2.21069 -2.21068,4.10556 -1.26325,1.89488 -3.15812,3.47394 -1.89487,1.26324 -4.42137,2.21068 -2.21069,0.63163 -5.053,0.63163 h -0.31581 z m 0,-30.94959 L 291.0255,684 h 0.31581 q 2.84231,0 5.053,0.94744 2.5265,0.63162 4.42137,2.21068 1.89487,1.26325 3.15812,3.15812 1.57906,1.89488 2.21068,4.42137 0.94744,2.21069 0.94744,5.053 v 0.31581 l -0.31581,0.31581 h -16.10642 v 0 q 0,0 0,0 0,0 0,0 0,0 0,0 0,0 0,0 0,0 0,0 v 0 z m 1.26325,0 v 16.10642 0 q 0,0 0,0 0,0 0,0 0,0 0,0 0,0 0,0 0,0 0,0 v 0 h -16.10642 l -0.31581,-0.31581 v -0.31581 q 0,-2.84231 0.63162,-5.053 0.94744,-2.52649 2.21069,-4.42137 1.57906,-1.89487 3.47393,-3.15812 1.89487,-1.57906 4.10556,-2.21068 Q 288.499,684 291.34131,684 h 0.31582 z m 0,-63.79405 -0.31581,0.31581 h -0.31582 q -2.84231,0 -5.3688,-0.63163 -2.21069,-0.94743 -4.10556,-2.21068 -1.89487,-1.57906 -3.47393,-3.47393 -1.26325,-1.89488 -2.21069,-4.10556 -0.63162,-2.5265 -0.63162,-5.36881 v -0.31581 l 0.31581,-0.31581 h 16.10642 v 0 q 0,0 0,0 0,0 0,0 0,0 0,0 0,0 0,0 0,0 0,0 v 0 z m -1.26325,0 v -16.10642 0 q 0,0 0,0 0,0 0,0 0,0 0,0 0,0 0,0 0,0 0,0 v 0 h 16.10642 l 0.31581,0.31581 v 0.31581 q 0,2.84231 -0.94744,5.36881 -0.63162,2.21068 -2.21068,4.10556 -1.26325,1.89487 -3.15812,3.47393 -1.89487,1.26325 -4.42137,2.21068 -2.21069,0.63163 -5.053,0.63163 h -0.31581 z m 0,-30.94959 0.31581,-0.31582 h 0.31581 q 2.84231,0 5.053,0.94744 2.5265,0.63162 4.42137,2.21069 1.89487,1.26324 3.15812,3.15812 1.57906,1.89487 2.21068,4.42137 0.94744,2.21068 0.94744,5.05299 v 0.31581 l -0.31581,0.31582 h -16.10642 v 0 q 0,0 0,0 0,0 0,0 0,0 0,0 0,0 0,0 0,0 0,0 v 0 z m 1.26325,0 v 16.10642 0 q 0,0 0,0 0,0 0,0 0,0 0,0 0,0 0,0 0,0 0,0 v 0 h -16.10642 l -0.31581,-0.31582 v -0.31581 q 0,-2.84231 0.63162,-5.05299 0.94744,-2.5265 2.21069,-4.42137 1.57906,-1.89488 3.47393,-3.15812 1.89487,-1.57907 4.10556,-2.21069 2.52649,-0.94744 5.3688,-0.94744 h 0.31582 z m 31.58121,125.69323 -0.31581,0.31582 h -0.31581 q -2.84231,0 -5.36881,-0.63163 -2.21068,-0.94744 -4.10556,-2.21068 -1.89487,-1.57906 -3.47393,-3.47394 -1.26325,-1.89487 -2.21068,-4.10556 -0.63163,-2.52649 -0.63163,-5.3688 v -0.31581 l 0.31581,-0.31582 h 16.10642 v 0 q 0,0 0,0 0,0 0,0 0,0 0,0 0,0 0,0 0,0 0,0 v 0 z m -1.26325,0 v -16.10642 0 q 0,0 0,0 0,0 0,0 0,0 0,0 0,0 0,0 0,0 0,0 v 0 h 16.10642 l 0.31582,0.31582 v 0.31581 q 0,2.84231 -0.94744,5.3688 -0.63162,2.21069 -2.21068,4.10556 -1.26325,1.89488 -3.15813,3.47394 -1.89487,1.26324 -4.42137,2.21068 -2.21068,0.63163 -5.05299,0.63163 h -0.31581 z m 0,-30.94959 L 322.60672,684 h 0.31581 q 2.84231,0 5.05299,0.94744 2.5265,0.63162 4.42137,2.21068 1.89488,1.26325 3.15813,3.15812 1.57906,1.89488 2.21068,4.42137 0.94744,2.21069 0.94744,5.053 v 0.31581 l -0.31582,0.31581 H 322.2909 v 0 q 0,0 0,0 0,0 0,0 0,0 0,0 0,0 0,0 0,0 0,0 v 0 z m 1.26325,0 v 16.10642 0 q 0,0 0,0 0,0 0,0 0,0 0,0 0,0 0,0 0,0 0,0 v 0 h -16.10642 l -0.31581,-0.31581 v -0.31581 q 0,-2.84231 0.63163,-5.053 0.94743,-2.52649 2.21068,-4.42137 1.57906,-1.89487 3.47393,-3.15812 1.89488,-1.57906 4.10556,-2.21068 Q 320.08022,684 322.92253,684 h 0.31581 z m 0,-63.79405 -0.31581,0.31581 h -0.31581 q -2.84231,0 -5.36881,-0.63163 -2.21068,-0.94743 -4.10556,-2.21068 -1.89487,-1.57906 -3.47393,-3.47393 -1.26325,-1.89488 -2.21068,-4.10556 -0.63163,-2.5265 -0.63163,-5.36881 v -0.31581 l 0.31581,-0.31581 h 16.10642 v 0 q 0,0 0,0 0,0 0,0 0,0 0,0 0,0 0,0 0,0 0,0 v 0 z m -1.26325,0 v -16.10642 0 q 0,0 0,0 0,0 0,0 0,0 0,0 0,0 0,0 0,0 0,0 v 0 h 16.10642 l 0.31582,0.31581 v 0.31581 q 0,2.84231 -0.94744,5.36881 -0.63162,2.21068 -2.21068,4.10556 -1.26325,1.89487 -3.15813,3.47393 -1.89487,1.26325 -4.42137,2.21068 -2.21068,0.63163 -5.05299,0.63163 h -0.31581 z m 0,-30.94959 0.31582,-0.31582 h 0.31581 q 2.84231,0 5.05299,0.94744 2.5265,0.63162 4.42137,2.21069 1.89488,1.26324 3.15813,3.15812 1.57906,1.89487 2.21068,4.42137 0.94744,2.21068 0.94744,5.05299 v 0.31581 l -0.31582,0.31582 H 322.2909 v 0 q 0,0 0,0 0,0 0,0 0,0 0,0 0,0 0,0 0,0 0,0 v 0 z m 1.26325,0 v 16.10642 0 q 0,0 0,0 0,0 0,0 0,0 0,0 0,0 0,0 0,0 0,0 v 0 h -16.10642 l -0.31581,-0.31582 v -0.31581 q 0,-2.84231 0.63163,-5.05299 0.94743,-2.5265 2.21068,-4.42137 1.57906,-1.89488 3.47393,-3.15812 1.89488,-1.57907 4.10556,-2.21069 2.5265,-0.94744 5.36881,-0.94744 h 0.31581 z m 31.58122,125.69323 -0.31581,0.31582 h -0.31582 q -2.8423,0 -5.3688,-0.63163 -2.21069,-0.94744 -4.10556,-2.21068 -1.89487,-1.57906 -3.47393,-3.47394 -1.26325,-1.89487 -2.21069,-4.10556 -0.63162,-2.52649 -0.63162,-5.3688 v -0.31581 l 0.31581,-0.31582 h 16.10642 v 0 q 0,0 0,0 0,0 0,0 0,0 0,0 0,0 0,0 0,0 0,0 v 0 z m -1.26325,0 v -16.10642 0 q 0,0 0,0 0,0 0,0 0,0 0,0 0,0 0,0 0,0 0,0 v 0 h 16.10642 l 0.31581,0.31582 v 0.31581 q 0,2.84231 -0.94743,5.3688 -0.63163,2.21069 -2.21069,4.10556 -1.26325,1.89488 -3.15812,3.47394 -1.89487,1.26324 -4.42137,2.21068 -2.21069,0.63163 -5.053,0.63163 h -0.31581 z m 0,-30.94959 L 354.18793,684 h 0.31581 q 2.84231,0 5.053,0.94744 2.5265,0.63162 4.42137,2.21068 1.89487,1.26325 3.15812,3.15812 1.57906,1.89488 2.21069,4.42137 0.94743,2.21069 0.94743,5.053 v 0.31581 l -0.31581,0.31581 h -16.10642 v 0 q 0,0 0,0 0,0 0,0 0,0 0,0 0,0 0,0 0,0 0,0 v 0 z m 1.26325,0 v 16.10642 0 q 0,0 0,0 0,0 0,0 0,0 0,0 0,0 0,0 0,0 0,0 v 0 h -16.10642 l -0.31581,-0.31581 v -0.31581 q 0,-2.84231 0.63162,-5.053 0.94744,-2.52649 2.21069,-4.42137 1.57906,-1.89487 3.47393,-3.15812 1.89487,-1.57906 4.10556,-2.21068 Q 351.66144,684 354.50374,684 h 0.31582 z m 0,-63.79405 -0.31581,0.31581 h -0.31582 q -2.8423,0 -5.3688,-0.63163 -2.21069,-0.94743 -4.10556,-2.21068 -1.89487,-1.57906 -3.47393,-3.47393 -1.26325,-1.89488 -2.21069,-4.10556 -0.63162,-2.5265 -0.63162,-5.36881 v -0.31581 l 0.31581,-0.31581 h 16.10642 v 0 q 0,0 0,0 0,0 0,0 0,0 0,0 0,0 0,0 0,0 0,0 v 0 z m -1.26325,0 v -16.10642 0 q 0,0 0,0 0,0 0,0 0,0 0,0 0,0 0,0 0,0 0,0 v 0 h 16.10642 l 0.31581,0.31581 v 0.31581 q 0,2.84231 -0.94743,5.36881 -0.63163,2.21068 -2.21069,4.10556 -1.26325,1.89487 -3.15812,3.47393 -1.89487,1.26325 -4.42137,2.21068 -2.21069,0.63163 -5.053,0.63163 h -0.31581 z m 0,-30.94959 0.31581,-0.31582 h 0.31581 q 2.84231,0 5.053,0.94744 2.5265,0.63162 4.42137,2.21069 1.89487,1.26324 3.15812,3.15812 1.57906,1.89487 2.21069,4.42137 0.94743,2.21068 0.94743,5.05299 v 0.31581 l -0.31581,0.31582 h -16.10642 v 0 q 0,0 0,0 0,0 0,0 0,0 0,0 0,0 0,0 0,0 0,0 v 0 z m 1.26325,0 v 16.10642 0 q 0,0 0,0 0,0 0,0 0,0 0,0 0,0 0,0 0,0 0,0 v 0 h -16.10642 l -0.31581,-0.31582 v -0.31581 q 0,-2.84231 0.63162,-5.05299 0.94744,-2.5265 2.21069,-4.42137 1.57906,-1.89488 3.47393,-3.15812 1.89487,-1.57907 4.10556,-2.21069 2.5265,-0.94744 5.3688,-0.94744 h 0.31582 z M 386.71658,683.68419 386.40077,684 h -0.31581 q -2.84231,0 -5.36881,-0.63162 -2.21068,-0.94744 -4.10555,-2.21069 -1.89488,-1.57906 -3.47394,-3.47393 -1.26325,-1.89488 -2.21068,-4.10556 -0.63163,-2.5265 -0.63163,-5.36881 v -0.31581 l 0.31581,-0.31581 h 16.10642 v 0 q 0,0 0,0 0,0 0,0 0,0 0,0 0,0 0,0 0,0 0,0 v 0 z m -1.26324,0 v -16.10642 0 q 0,0 0,0 0,0 0,0 0,0 0,0 0,0 0,0 0,0 0,0 v 0 h 16.10642 l 0.31581,0.31581 v 0.31581 q 0,2.84231 -0.94744,5.36881 -0.63162,2.21068 -2.21068,4.10556 -1.26325,1.89487 -3.15813,3.47393 -1.89487,1.26325 -4.42137,2.21069 Q 388.92727,684 386.08496,684 h -0.31581 z m 0,-30.94959 0.31581,-0.31582 h 0.31581 q 2.84231,0 5.05299,0.94744 2.5265,0.63163 4.42137,2.21069 1.89488,1.26324 3.15813,3.15812 1.57906,1.89487 2.21068,4.42137 0.94744,2.21068 0.94744,5.05299 v 0.31581 l -0.31581,0.31582 h -16.10642 v 0 q 0,0 0,0 0,0 0,0 0,0 0,0 0,0 0,0 0,0 0,0 v 0 z m 1.26324,0 v 16.10642 0 q 0,0 0,0 0,0 0,0 0,0 0,0 0,0 0,0 0,0 0,0 v 0 h -16.10642 l -0.31581,-0.31582 v -0.31581 q 0,-2.84231 0.63163,-5.05299 0.94743,-2.5265 2.21068,-4.42137 1.57906,-1.89488 3.47394,-3.15812 1.89487,-1.57906 4.10555,-2.21069 2.5265,-0.94744 5.36881,-0.94744 h 0.31581 z m 0,-0.63163 -0.31581,0.31581 h -0.31581 q -2.84231,0 -5.36881,-0.63162 -2.21068,-0.94744 -4.10555,-2.21068 -1.89488,-1.57907 -3.47394,-3.47394 -1.26325,-1.89487 -2.21068,-4.10556 -0.63163,-2.52649 -0.63163,-5.3688 v -0.31582 l 0.31581,-0.31581 h 16.10642 v 0 q 0,0 0,0 0,0 0,0 0,0 0,0 0,0 0,0 0,0 0,0 v 0 z m -1.26324,0 v -16.10642 0 q 0,0 0,0 0,0 0,0 0,0 0,0 0,0 0,0 0,0 0,0 v 0 h 16.10642 l 0.31581,0.31581 v 0.31582 q 0,2.84231 -0.94744,5.3688 -0.63162,2.21069 -2.21068,4.10556 -1.26325,1.89487 -3.15813,3.47394 -1.89487,1.26324 -4.42137,2.21068 -2.21068,0.63162 -5.05299,0.63162 h -0.31581 z m 0,-30.94959 0.31581,-0.31581 h 0.31581 q 2.84231,0 5.05299,0.94744 2.5265,0.63162 4.42137,2.21068 1.89488,1.26325 3.15813,3.15812 1.57906,1.89488 2.21068,4.42137 0.94744,2.21069 0.94744,5.053 v 0.31581 l -0.31581,0.31581 h -16.10642 v 0 q 0,0 0,0 0,0 0,0 0,0 0,0 0,0 0,0 0,0 0,0 v 0 z m 1.26324,0 v 16.10642 0 q 0,0 0,0 0,0 0,0 0,0 0,0 0,0 0,0 0,0 0,0 v 0 h -16.10642 l -0.31581,-0.31581 v -0.31581 q 0,-2.84231 0.63163,-5.053 0.94743,-2.52649 2.21068,-4.42137 1.57906,-1.89487 3.47394,-3.15812 1.89487,-1.57906 4.10555,-2.21068 2.5265,-0.94744 5.36881,-0.94744 h 0.31581 z m 63.16255,157.27445 -0.31581,0.31582 h -0.31581 q -2.84231,0 -5.36881,-0.63163 -2.21068,-0.94743 -4.10556,-2.21068 -1.89487,-1.57906 -3.47393,-3.47394 -1.26325,-1.89487 -2.21068,-4.10555 -0.63163,-2.5265 -0.63163,-5.36881 v -0.31581 l 0.31581,-0.31582 h 16.10642 v 0 q 0,0 0,0 0,0 0,0 0,0 0,0 0,0 0,0 0,0 0,0 v 0 z m -1.26325,0 v -16.10642 0 q 0,0 0,0 0,0 0,0 0,0 0,0 0,0 0,0 0,0 0,0 v 0 h 16.10642 l 0.31582,0.31582 v 0.31581 q 0,2.84231 -0.94744,5.36881 -0.63162,2.21068 -2.21068,4.10555 -1.26325,1.89488 -3.15813,3.47394 -1.89487,1.26325 -4.42137,2.21068 -2.21068,0.63163 -5.05299,0.63163 h -0.31581 z m 0,-30.94959 0.31582,-0.31581 h 0.31581 q 2.84231,0 5.05299,0.94744 2.5265,0.63162 4.42137,2.21068 1.89488,1.26325 3.15813,3.15812 1.57906,1.89488 2.21068,4.42137 0.94744,2.21069 0.94744,5.053 v 0.31581 l -0.31582,0.31581 h -16.10642 v 0 q 0,0 0,0 0,0 0,0 0,0 0,0 0,0 0,0 0,0 0,0 v 0 z m 1.26325,0 v 16.10642 0 q 0,0 0,0 0,0 0,0 0,0 0,0 0,0 0,0 0,0 0,0 v 0 h -16.10642 l -0.31581,-0.31581 v -0.31581 q 0,-2.84231 0.63163,-5.053 0.94743,-2.52649 2.21068,-4.42137 1.57906,-1.89487 3.47393,-3.15812 1.89488,-1.57906 4.10556,-2.21068 2.5265,-0.94744 5.36881,-0.94744 h 0.31581 z m 0,-0.63162 -0.31581,0.31581 h -0.31581 q -2.84231,0 -5.36881,-0.63162 -2.21068,-0.94744 -4.10556,-2.21069 -1.89487,-1.57906 -3.47393,-3.47393 -1.26325,-1.89488 -2.21068,-4.10556 -0.63163,-2.5265 -0.63163,-5.36881 v -0.31581 l 0.31581,-0.31581 h 16.10642 v 0 q 0,0 0,0 0,0 0,0 0,0 0,0 0,0 0,0 0,0 0,0 v 0 z m -1.26325,0 v -16.10642 0 q 0,0 0,0 0,0 0,0 0,0 0,0 0,0 0,0 0,0 0,0 v 0 h 16.10642 l 0.31582,0.31581 v 0.31581 q 0,2.84231 -0.94744,5.36881 -0.63162,2.21068 -2.21068,4.10556 -1.26325,1.89487 -3.15813,3.47393 -1.89487,1.26325 -4.42137,2.21069 -2.21068,0.63162 -5.05299,0.63162 h -0.31581 z m 0,-30.94959 0.31582,-0.31581 h 0.31581 q 2.84231,0 5.05299,0.94743 2.5265,0.63163 4.42137,2.21069 1.89488,1.26325 3.15813,3.15812 1.57906,1.89487 2.21068,4.42137 0.94744,2.21068 0.94744,5.05299 v 0.31582 l -0.31582,0.31581 h -16.10642 v 0 q 0,0 0,0 0,0 0,0 0,0 0,0 0,0 0,0 0,0 0,0 v 0 z m 1.26325,0 v 16.10642 0 q 0,0 0,0 0,0 0,0 0,0 0,0 0,0 0,0 0,0 0,0 v 0 h -16.10642 l -0.31581,-0.31581 v -0.31582 q 0,-2.84231 0.63163,-5.05299 0.94743,-2.5265 2.21068,-4.42137 1.57906,-1.89487 3.47393,-3.15812 1.89488,-1.57906 4.10556,-2.21069 2.5265,-0.94743 5.36881,-0.94743 h 0.31581 z m 0,-0.63163 -0.31581,0.31582 h -0.31581 q -2.84231,0 -5.36881,-0.63163 -2.21068,-0.94744 -4.10556,-2.21068 -1.89487,-1.57906 -3.47393,-3.47394 -1.26325,-1.89487 -2.21068,-4.10556 -0.63163,-2.52649 -0.63163,-5.3688 v -0.31581 l 0.31581,-0.31582 h 16.10642 v 0 q 0,0 0,0 0,0 0,0 0,0 0,0 0,0 0,0 0,0 0,0 v 0 z m -1.26325,0 v -16.10642 0 q 0,0 0,0 0,0 0,0 0,0 0,0 0,0 0,0 0,0 0,0 v 0 h 16.10642 l 0.31582,0.31582 v 0.31581 q 0,2.84231 -0.94744,5.3688 -0.63162,2.21069 -2.21068,4.10556 -1.26325,1.89488 -3.15813,3.47394 -1.89487,1.26324 -4.42137,2.21068 -2.21068,0.63163 -5.05299,0.63163 h -0.31581 z m 0,-30.94959 L 448.9317,684 h 0.31581 q 2.84231,0 5.05299,0.94744 2.5265,0.63162 4.42137,2.21068 1.89488,1.26325 3.15813,3.15812 1.57906,1.89488 2.21068,4.42137 0.94744,2.21069 0.94744,5.053 v 0.31581 l -0.31582,0.31581 h -16.10642 v 0 q 0,0 0,0 0,0 0,0 0,0 0,0 0,0 0,0 0,0 0,0 v 0 z m 1.26325,0 v 16.10642 0 q 0,0 0,0 0,0 0,0 0,0 0,0 0,0 0,0 0,0 0,0 v 0 h -16.10642 l -0.31581,-0.31581 v -0.31581 q 0,-2.84231 0.63163,-5.053 0.94743,-2.52649 2.21068,-4.42137 1.57906,-1.89487 3.47393,-3.15812 1.89488,-1.57906 4.10556,-2.21068 Q 446.4052,684 449.24751,684 h 0.31581 z m 0,-0.63162 L 449.56332,684 h -0.31581 q -2.84231,0 -5.36881,-0.63162 -2.21068,-0.94744 -4.10556,-2.21069 -1.89487,-1.57906 -3.47393,-3.47393 -1.26325,-1.89488 -2.21068,-4.10556 -0.63163,-2.5265 -0.63163,-5.36881 v -0.31581 l 0.31581,-0.31581 h 16.10642 v 0 q 0,0 0,0 0,0 0,0 0,0 0,0 0,0 0,0 0,0 0,0 v 0 z m -1.26325,0 v -16.10642 0 q 0,0 0,0 0,0 0,0 0,0 0,0 0,0 0,0 0,0 0,0 v 0 h 16.10642 l 0.31582,0.31581 v 0.31581 q 0,2.84231 -0.94744,5.36881 -0.63162,2.21068 -2.21068,4.10556 -1.26325,1.89487 -3.15813,3.47393 -1.89487,1.26325 -4.42137,2.21069 Q 452.08982,684 449.24751,684 h -0.31581 z m 0,-30.94959 0.31582,-0.31582 h 0.31581 q 2.84231,0 5.05299,0.94744 2.5265,0.63163 4.42137,2.21069 1.89488,1.26324 3.15813,3.15812 1.57906,1.89487 2.21068,4.42137 0.94744,2.21068 0.94744,5.05299 v 0.31581 l -0.31582,0.31582 h -16.10642 v 0 q 0,0 0,0 0,0 0,0 0,0 0,0 0,0 0,0 0,0 0,0 v 0 z m 1.26325,0 v 16.10642 0 q 0,0 0,0 0,0 0,0 0,0 0,0 0,0 0,0 0,0 0,0 v 0 h -16.10642 l -0.31581,-0.31582 v -0.31581 q 0,-2.84231 0.63163,-5.05299 0.94743,-2.5265 2.21068,-4.42137 1.57906,-1.89488 3.47393,-3.15812 1.89488,-1.57906 4.10556,-2.21069 2.5265,-0.94744 5.36881,-0.94744 h 0.31581 z m 0,-0.63163 -0.31581,0.31581 h -0.31581 q -2.84231,0 -5.36881,-0.63162 -2.21068,-0.94744 -4.10556,-2.21068 -1.89487,-1.57907 -3.47393,-3.47394 -1.26325,-1.89487 -2.21068,-4.10556 -0.63163,-2.52649 -0.63163,-5.3688 v -0.31582 l 0.31581,-0.31581 h 16.10642 v 0 q 0,0 0,0 0,0 0,0 0,0 0,0 0,0 0,0 0,0 0,0 v 0 z m -1.26325,0 v -16.10642 0 q 0,0 0,0 0,0 0,0 0,0 0,0 0,0 0,0 0,0 0,0 v 0 h 16.10642 l 0.31582,0.31581 v 0.31582 q 0,2.84231 -0.94744,5.3688 -0.63162,2.21069 -2.21068,4.10556 -1.26325,1.89487 -3.15813,3.47394 -1.89487,1.26324 -4.42137,2.21068 -2.21068,0.63162 -5.05299,0.63162 h -0.31581 z m 0,-30.94959 0.31582,-0.31581 h 0.31581 q 2.84231,0 5.05299,0.94744 2.5265,0.63162 4.42137,2.21068 1.89488,1.26325 3.15813,3.15812 1.57906,1.89488 2.21068,4.42137 0.94744,2.21069 0.94744,5.053 v 0.31581 l -0.31582,0.31581 h -16.10642 v 0 q 0,0 0,0 0,0 0,0 0,0 0,0 0,0 0,0 0,0 0,0 v 0 z m 1.26325,0 v 16.10642 0 q 0,0 0,0 0,0 0,0 0,0 0,0 0,0 0,0 0,0 0,0 v 0 h -16.10642 l -0.31581,-0.31581 v -0.31581 q 0,-2.84231 0.63163,-5.053 0.94743,-2.52649 2.21068,-4.42137 1.57906,-1.89487 3.47393,-3.15812 1.89488,-1.57906 4.10556,-2.21068 2.5265,-0.94744 5.36881,-0.94744 h 0.31581 z m 0,-0.63162 -0.31581,0.31581 h -0.31581 q -2.84231,0 -5.36881,-0.63163 -2.21068,-0.94743 -4.10556,-2.21068 -1.89487,-1.57906 -3.47393,-3.47393 -1.26325,-1.89488 -2.21068,-4.10556 -0.63163,-2.5265 -0.63163,-5.36881 v -0.31581 l 0.31581,-0.31581 h 16.10642 v 0 q 0,0 0,0 0,0 0,0 0,0 0,0 0,0 0,0 0,0 0,0 v 0 z m -1.26325,0 v -16.10642 0 q 0,0 0,0 0,0 0,0 0,0 0,0 0,0 0,0 0,0 0,0 v 0 h 16.10642 l 0.31582,0.31581 v 0.31581 q 0,2.84231 -0.94744,5.36881 -0.63162,2.21068 -2.21068,4.10556 -1.26325,1.89487 -3.15813,3.47393 -1.89487,1.26325 -4.42137,2.21068 -2.21068,0.63163 -5.05299,0.63163 h -0.31581 z m 0,-30.94959 0.31582,-0.31582 h 0.31581 q 2.84231,0 5.05299,0.94744 2.5265,0.63162 4.42137,2.21069 1.89488,1.26324 3.15813,3.15812 1.57906,1.89487 2.21068,4.42137 0.94744,2.21068 0.94744,5.05299 v 0.31581 l -0.31582,0.31582 h -16.10642 v 0 q 0,0 0,0 0,0 0,0 0,0 0,0 0,0 0,0 0,0 0,0 v 0 z m 1.26325,0 v 16.10642 0 q 0,0 0,0 0,0 0,0 0,0 0,0 0,0 0,0 0,0 0,0 v 0 h -16.10642 l -0.31581,-0.31582 v -0.31581 q 0,-2.84231 0.63163,-5.05299 0.94743,-2.5265 2.21068,-4.42137 1.57906,-1.89488 3.47393,-3.15812 1.89488,-1.57907 4.10556,-2.21069 2.5265,-0.94744 5.36881,-0.94744 h 0.31581 z M 481.46035,683.68419 481.14454,684 h -0.31582 q -2.8423,0 -5.3688,-0.63162 -2.21069,-0.94744 -4.10556,-2.21069 -1.89487,-1.57906 -3.47393,-3.47393 -1.26325,-1.89488 -2.21069,-4.10556 -0.63162,-2.5265 -0.63162,-5.36881 v -0.31581 l 0.31581,-0.31581 h 16.10642 v 0 q 0,0 0,0 0,0 0,0 0,0 0,0 0,0 0,0 0,0 0,0 v 0 z m -1.26325,0 v -16.10642 0 q 0,0 0,0 0,0 0,0 0,0 0,0 0,0 0,0 0,0 0,0 v 0 h 16.10642 l 0.31581,0.31581 v 0.31581 q 0,2.84231 -0.94743,5.36881 -0.63163,2.21068 -2.21069,4.10556 -1.26325,1.89487 -3.15812,3.47393 -1.89487,1.26325 -4.42137,2.21069 Q 483.67103,684 480.82872,684 h -0.31581 z m 0,-30.94959 0.31581,-0.31582 h 0.31581 q 2.84231,0 5.053,0.94744 2.5265,0.63163 4.42137,2.21069 1.89487,1.26324 3.15812,3.15812 1.57906,1.89487 2.21069,4.42137 0.94743,2.21068 0.94743,5.05299 v 0.31581 l -0.31581,0.31582 H 480.1971 v 0 q 0,0 0,0 0,0 0,0 0,0 0,0 0,0 0,0 0,0 0,0 v 0 z m 1.26325,0 v 16.10642 0 q 0,0 0,0 0,0 0,0 0,0 0,0 0,0 0,0 0,0 0,0 v 0 h -16.10642 l -0.31581,-0.31582 v -0.31581 q 0,-2.84231 0.63162,-5.05299 0.94744,-2.5265 2.21069,-4.42137 1.57906,-1.89488 3.47393,-3.15812 1.89487,-1.57906 4.10556,-2.21069 2.5265,-0.94744 5.3688,-0.94744 h 0.31582 z M 513.04156,683.68419 512.72575,684 h -0.31581 q -2.84231,0 -5.36881,-0.63162 -2.21068,-0.94744 -4.10555,-2.21069 -1.89488,-1.57906 -3.47394,-3.47393 -1.26325,-1.89488 -2.21068,-4.10556 -0.63163,-2.5265 -0.63163,-5.36881 v -0.31581 l 0.31581,-0.31581 h 16.10642 v 0 q 0,0 0,0 0,0 0,0 0,0 0,0 0,0 0,0 0,0 0,0 v 0 z m -1.26324,0 v -16.10642 0 q 0,0 0,0 0,0 0,0 0,0 0,0 0,0 0,0 0,0 0,0 v 0 h 16.10642 l 0.31581,0.31581 v 0.31581 q 0,2.84231 -0.94744,5.36881 -0.63162,2.21068 -2.21068,4.10556 -1.26325,1.89487 -3.15813,3.47393 -1.89487,1.26325 -4.42137,2.21069 Q 515.25225,684 512.40994,684 h -0.31581 z m 0,-30.94959 0.31581,-0.31582 h 0.31581 q 2.84231,0 5.05299,0.94744 2.5265,0.63163 4.42137,2.21069 1.89488,1.26324 3.15813,3.15812 1.57906,1.89487 2.21068,4.42137 0.94744,2.21068 0.94744,5.05299 v 0.31581 l -0.31581,0.31582 h -16.10642 v 0 q 0,0 0,0 0,0 0,0 0,0 0,0 0,0 0,0 0,0 0,0 v 0 z m 1.26324,0 v 16.10642 0 q 0,0 0,0 0,0 0,0 0,0 0,0 0,0 0,0 0,0 0,0 v 0 h -16.10642 l -0.31581,-0.31582 v -0.31581 q 0,-2.84231 0.63163,-5.05299 0.94743,-2.5265 2.21068,-4.42137 1.57906,-1.89488 3.47394,-3.15812 1.89487,-1.57906 4.10555,-2.21069 2.5265,-0.94744 5.36881,-0.94744 h 0.31581 z M 544.62278,683.68419 544.30697,684 h -0.31581 q -2.84231,0 -5.36881,-0.63162 -2.21069,-0.94744 -4.10556,-2.21069 -1.89487,-1.57906 -3.47393,-3.47393 -1.26325,-1.89488 -2.21069,-4.10556 -0.63162,-2.5265 -0.63162,-5.36881 v -0.31581 l 0.31581,-0.31581 h 16.10642 v 0 q 0,0 0,0 0,0 0,0 0,0 0,0 0,0 0,0 0,0 0,0 v 0 z m -1.26325,0 v -16.10642 0 q 0,0 0,0 0,0 0,0 0,0 0,0 0,0 0,0 0,0 0,0 v 0 h 16.10642 l 0.31581,0.31581 v 0.31581 q 0,2.84231 -0.94743,5.36881 -0.63163,2.21068 -2.21069,4.10556 -1.26325,1.89487 -3.15812,3.47393 -1.89487,1.26325 -4.42137,2.21069 Q 546.83346,684 543.99116,684 h -0.31582 z m 0,-30.94959 0.31581,-0.31582 h 0.31582 q 2.8423,0 5.05299,0.94744 2.5265,0.63163 4.42137,2.21069 1.89487,1.26324 3.15812,3.15812 1.57906,1.89487 2.21069,4.42137 0.94743,2.21068 0.94743,5.05299 v 0.31581 l -0.31581,0.31582 h -16.10642 v 0 q 0,0 0,0 0,0 0,0 0,0 0,0 0,0 0,0 0,0 0,0 v 0 z m 1.26325,0 v 16.10642 0 q 0,0 0,0 0,0 0,0 0,0 0,0 0,0 0,0 0,0 0,0 v 0 h -16.10642 l -0.31581,-0.31582 v -0.31581 q 0,-2.84231 0.63162,-5.05299 0.94744,-2.5265 2.21069,-4.42137 1.57906,-1.89488 3.47393,-3.15812 1.89487,-1.57906 4.10556,-2.21069 2.5265,-0.94744 5.36881,-0.94744 h 0.31581 z m 31.58122,125.69323 -0.31582,0.31582 h -0.31581 q -2.84231,0 -5.36881,-0.63163 -2.21068,-0.94743 -4.10555,-2.21068 -1.89488,-1.57906 -3.47394,-3.47394 -1.26325,-1.89487 -2.21068,-4.10555 -0.63163,-2.5265 -0.63163,-5.36881 v -0.31581 l 0.31582,-0.31582 H 576.204 v 0 q 0,0 0,0 0,0 0,0 0,0 0,0 0,0 0,0 0,0 0,0 v 0 z m -1.26325,0 v -16.10642 0 q 0,0 0,0 0,0 0,0 0,0 0,0 0,0 0,0 0,0 0,0 v 0 h 16.10642 l 0.31581,0.31582 v 0.31581 q 0,2.84231 -0.94744,5.36881 -0.63162,2.21068 -2.21068,4.10555 -1.26325,1.89488 -3.15812,3.47394 -1.89488,1.26325 -4.42137,2.21068 -2.21069,0.63163 -5.053,0.63163 h -0.31581 z m 0,-30.94959 0.31581,-0.31581 h 0.31581 q 2.84231,0 5.053,0.94744 2.52649,0.63162 4.42137,2.21068 1.89487,1.26325 3.15812,3.15812 1.57906,1.89488 2.21068,4.42137 0.94744,2.21069 0.94744,5.053 v 0.31581 l -0.31581,0.31581 h -16.10642 v 0 q 0,0 0,0 0,0 0,0 0,0 0,0 0,0 0,0 0,0 0,0 v 0 z m 1.26325,0 v 16.10642 0 q 0,0 0,0 0,0 0,0 0,0 0,0 0,0 0,0 0,0 0,0 v 0 h -16.10642 l -0.31582,-0.31581 v -0.31581 q 0,-2.84231 0.63163,-5.053 0.94743,-2.52649 2.21068,-4.42137 1.57906,-1.89487 3.47394,-3.15812 1.89487,-1.57906 4.10555,-2.21068 2.5265,-0.94744 5.36881,-0.94744 h 0.31581 z m 0,-0.63162 -0.31582,0.31581 h -0.31581 q -2.84231,0 -5.36881,-0.63162 -2.21068,-0.94744 -4.10555,-2.21069 -1.89488,-1.57906 -3.47394,-3.47393 -1.26325,-1.89488 -2.21068,-4.10556 -0.63163,-2.5265 -0.63163,-5.36881 v -0.31581 l 0.31582,-0.31581 H 576.204 v 0 q 0,0 0,0 0,0 0,0 0,0 0,0 0,0 0,0 0,0 0,0 v 0 z m -1.26325,0 v -16.10642 0 q 0,0 0,0 0,0 0,0 0,0 0,0 0,0 0,0 0,0 0,0 v 0 h 16.10642 l 0.31581,0.31581 v 0.31581 q 0,2.84231 -0.94744,5.36881 -0.63162,2.21068 -2.21068,4.10556 -1.26325,1.89487 -3.15812,3.47393 -1.89488,1.26325 -4.42137,2.21069 -2.21069,0.63162 -5.053,0.63162 h -0.31581 z m 0,-30.94959 0.31581,-0.31581 h 0.31581 q 2.84231,0 5.053,0.94743 2.52649,0.63163 4.42137,2.21069 1.89487,1.26325 3.15812,3.15812 1.57906,1.89487 2.21068,4.42137 0.94744,2.21068 0.94744,5.05299 v 0.31582 l -0.31581,0.31581 h -16.10642 v 0 q 0,0 0,0 0,0 0,0 0,0 0,0 0,0 0,0 0,0 0,0 v 0 z m 1.26325,0 v 16.10642 0 q 0,0 0,0 0,0 0,0 0,0 0,0 0,0 0,0 0,0 0,0 v 0 h -16.10642 l -0.31582,-0.31581 v -0.31582 q 0,-2.84231 0.63163,-5.05299 0.94743,-2.5265 2.21068,-4.42137 1.57906,-1.89487 3.47394,-3.15812 1.89487,-1.57906 4.10555,-2.21069 2.5265,-0.94743 5.36881,-0.94743 h 0.31581 z m 0,-0.63163 -0.31582,0.31582 h -0.31581 q -2.84231,0 -5.36881,-0.63163 -2.21068,-0.94744 -4.10555,-2.21068 -1.89488,-1.57906 -3.47394,-3.47394 -1.26325,-1.89487 -2.21068,-4.10556 -0.63163,-2.52649 -0.63163,-5.3688 v -0.31581 l 0.31582,-0.31582 H 576.204 v 0 q 0,0 0,0 0,0 0,0 0,0 0,0 0,0 0,0 0,0 0,0 v 0 z m -1.26325,0 v -16.10642 0 q 0,0 0,0 0,0 0,0 0,0 0,0 0,0 0,0 0,0 0,0 v 0 h 16.10642 l 0.31581,0.31582 v 0.31581 q 0,2.84231 -0.94744,5.3688 -0.63162,2.21069 -2.21068,4.10556 -1.26325,1.89488 -3.15812,3.47394 -1.89488,1.26324 -4.42137,2.21068 -2.21069,0.63163 -5.053,0.63163 h -0.31581 z m 0,-30.94959 L 575.25656,684 h 0.31581 q 2.84231,0 5.053,0.94744 2.52649,0.63162 4.42137,2.21068 1.89487,1.26325 3.15812,3.15812 1.57906,1.89488 2.21068,4.42137 0.94744,2.21069 0.94744,5.053 v 0.31581 l -0.31581,0.31581 h -16.10642 v 0 q 0,0 0,0 0,0 0,0 0,0 0,0 0,0 0,0 0,0 0,0 v 0 z m 1.26325,0 v 16.10642 0 q 0,0 0,0 0,0 0,0 0,0 0,0 0,0 0,0 0,0 0,0 v 0 h -16.10642 l -0.31582,-0.31581 v -0.31581 q 0,-2.84231 0.63163,-5.053 0.94743,-2.52649 2.21068,-4.42137 1.57906,-1.89487 3.47394,-3.15812 1.89487,-1.57906 4.10555,-2.21068 Q 572.73006,684 575.57237,684 h 0.31581 z m 0,-0.63162 L 575.88818,684 h -0.31581 q -2.84231,0 -5.36881,-0.63162 -2.21068,-0.94744 -4.10555,-2.21069 -1.89488,-1.57906 -3.47394,-3.47393 -1.26325,-1.89488 -2.21068,-4.10556 -0.63163,-2.5265 -0.63163,-5.36881 v -0.31581 l 0.31582,-0.31581 H 576.204 v 0 q 0,0 0,0 0,0 0,0 0,0 0,0 0,0 0,0 0,0 0,0 v 0 z m -1.26325,0 v -16.10642 0 q 0,0 0,0 0,0 0,0 0,0 0,0 0,0 0,0 0,0 0,0 v 0 h 16.10642 l 0.31581,0.31581 v 0.31581 q 0,2.84231 -0.94744,5.36881 -0.63162,2.21068 -2.21068,4.10556 -1.26325,1.89487 -3.15812,3.47393 -1.89488,1.26325 -4.42137,2.21069 Q 578.41468,684 575.57237,684 h -0.31581 z m 0,-30.94959 0.31581,-0.31582 h 0.31581 q 2.84231,0 5.053,0.94744 2.52649,0.63163 4.42137,2.21069 1.89487,1.26324 3.15812,3.15812 1.57906,1.89487 2.21068,4.42137 0.94744,2.21068 0.94744,5.05299 v 0.31581 l -0.31581,0.31582 h -16.10642 v 0 q 0,0 0,0 0,0 0,0 0,0 0,0 0,0 0,0 0,0 0,0 v 0 z m 1.26325,0 v 16.10642 0 q 0,0 0,0 0,0 0,0 0,0 0,0 0,0 0,0 0,0 0,0 v 0 h -16.10642 l -0.31582,-0.31582 v -0.31581 q 0,-2.84231 0.63163,-5.05299 0.94743,-2.5265 2.21068,-4.42137 1.57906,-1.89488 3.47394,-3.15812 1.89487,-1.57906 4.10555,-2.21069 2.5265,-0.94744 5.36881,-0.94744 h 0.31581 z m 0,-0.63163 -0.31582,0.31581 h -0.31581 q -2.84231,0 -5.36881,-0.63162 -2.21068,-0.94744 -4.10555,-2.21068 -1.89488,-1.57907 -3.47394,-3.47394 -1.26325,-1.89487 -2.21068,-4.10556 -0.63163,-2.52649 -0.63163,-5.3688 v -0.31582 l 0.31582,-0.31581 H 576.204 v 0 q 0,0 0,0 0,0 0,0 0,0 0,0 0,0 0,0 0,0 0,0 v 0 z m -1.26325,0 v -16.10642 0 q 0,0 0,0 0,0 0,0 0,0 0,0 0,0 0,0 0,0 0,0 v 0 h 16.10642 l 0.31581,0.31581 v 0.31582 q 0,2.84231 -0.94744,5.3688 -0.63162,2.21069 -2.21068,4.10556 -1.26325,1.89487 -3.15812,3.47394 -1.89488,1.26324 -4.42137,2.21068 -2.21069,0.63162 -5.053,0.63162 h -0.31581 z m 0,-30.94959 0.31581,-0.31581 h 0.31581 q 2.84231,0 5.053,0.94744 2.52649,0.63162 4.42137,2.21068 1.89487,1.26325 3.15812,3.15812 1.57906,1.89488 2.21068,4.42137 0.94744,2.21069 0.94744,5.053 v 0.31581 l -0.31581,0.31581 h -16.10642 v 0 q 0,0 0,0 0,0 0,0 0,0 0,0 0,0 0,0 0,0 0,0 v 0 z m 1.26325,0 v 16.10642 0 q 0,0 0,0 0,0 0,0 0,0 0,0 0,0 0,0 0,0 0,0 v 0 h -16.10642 l -0.31582,-0.31581 v -0.31581 q 0,-2.84231 0.63163,-5.053 0.94743,-2.52649 2.21068,-4.42137 1.57906,-1.89487 3.47394,-3.15812 1.89487,-1.57906 4.10555,-2.21068 2.5265,-0.94744 5.36881,-0.94744 h 0.31581 z m 0,-0.63162 -0.31582,0.31581 h -0.31581 q -2.84231,0 -5.36881,-0.63163 -2.21068,-0.94743 -4.10555,-2.21068 -1.89488,-1.57906 -3.47394,-3.47393 -1.26325,-1.89488 -2.21068,-4.10556 -0.63163,-2.5265 -0.63163,-5.36881 v -0.31581 l 0.31582,-0.31581 H 576.204 v 0 q 0,0 0,0 0,0 0,0 0,0 0,0 0,0 0,0 0,0 0,0 v 0 z m -1.26325,0 v -16.10642 0 q 0,0 0,0 0,0 0,0 0,0 0,0 0,0 0,0 0,0 0,0 v 0 h 16.10642 l 0.31581,0.31581 v 0.31581 q 0,2.84231 -0.94744,5.36881 -0.63162,2.21068 -2.21068,4.10556 -1.26325,1.89487 -3.15812,3.47393 -1.89488,1.26325 -4.42137,2.21068 -2.21069,0.63163 -5.053,0.63163 h -0.31581 z m 0,-30.94959 0.31581,-0.31582 h 0.31581 q 2.84231,0 5.053,0.94744 2.52649,0.63162 4.42137,2.21069 1.89487,1.26324 3.15812,3.15812 1.57906,1.89487 2.21068,4.42137 0.94744,2.21068 0.94744,5.05299 v 0.31581 l -0.31581,0.31582 h -16.10642 v 0 q 0,0 0,0 0,0 0,0 0,0 0,0 0,0 0,0 0,0 0,0 v 0 z m 1.26325,0 v 16.10642 0 q 0,0 0,0 0,0 0,0 0,0 0,0 0,0 0,0 0,0 0,0 v 0 h -16.10642 l -0.31582,-0.31582 v -0.31581 q 0,-2.84231 0.63163,-5.05299 0.94743,-2.5265 2.21068,-4.42137 1.57906,-1.89488 3.47394,-3.15812 1.89487,-1.57907 4.10555,-2.21069 2.5265,-0.94744 5.36881,-0.94744 h 0.31581 z m 63.16254,157.27445 -0.31581,0.31581 h -0.31581 q -2.84231,0 -5.36881,-0.63162 -2.21068,-0.94744 -4.10555,-2.21069 -1.89488,-1.57906 -3.47394,-3.47393 -1.26325,-1.89488 -2.21068,-4.10556 -0.63163,-2.5265 -0.63163,-5.36881 v -0.31581 l 0.31581,-0.31581 h 16.10642 v 0 q 0,0 0,0 0,0 0,0 0,0 0,0 0,0 0,0 0,0 0,0 v 0 z m -1.26324,0 v -16.10642 0 q 0,0 0,0 0,0 0,0 0,0 0,0 0,0 0,0 0,0 0,0 v 0 h 16.10642 l 0.31581,0.31581 v 0.31581 q 0,2.84231 -0.94744,5.36881 -0.63162,2.21068 -2.21068,4.10556 -1.26325,1.89487 -3.15813,3.47393 -1.89487,1.26325 -4.42137,2.21069 -2.21068,0.63162 -5.05299,0.63162 h -0.31581 z m 0,-30.94959 0.31581,-0.31581 h 0.31581 q 2.84231,0 5.05299,0.94743 2.5265,0.63163 4.42137,2.21069 1.89488,1.26325 3.15813,3.15812 1.57906,1.89487 2.21068,4.42137 0.94744,2.21068 0.94744,5.05299 v 0.31582 l -0.31581,0.31581 H 638.1033 v 0 q 0,0 0,0 0,0 0,0 0,0 0,0 0,0 0,0 0,0 0,0 v 0 z m 1.26324,0 v 16.10642 0 q 0,0 0,0 0,0 0,0 0,0 0,0 0,0 0,0 0,0 0,0 v 0 h -16.10642 l -0.31581,-0.31581 v -0.31582 q 0,-2.84231 0.63163,-5.05299 0.94743,-2.5265 2.21068,-4.42137 1.57906,-1.89487 3.47394,-3.15812 1.89487,-1.57906 4.10555,-2.21069 2.5265,-0.94743 5.36881,-0.94743 h 0.31581 z m 0,-0.63163 -0.31581,0.31582 h -0.31581 q -2.84231,0 -5.36881,-0.63163 -2.21068,-0.94744 -4.10555,-2.21068 -1.89488,-1.57906 -3.47394,-3.47394 -1.26325,-1.89487 -2.21068,-4.10556 -0.63163,-2.52649 -0.63163,-5.3688 v -0.31581 l 0.31581,-0.31582 h 16.10642 v 0 q 0,0 0,0 0,0 0,0 0,0 0,0 0,0 0,0 0,0 0,0 v 0 z m -1.26324,0 v -16.10642 0 q 0,0 0,0 0,0 0,0 0,0 0,0 0,0 0,0 0,0 0,0 v 0 h 16.10642 l 0.31581,0.31582 v 0.31581 q 0,2.84231 -0.94744,5.3688 -0.63162,2.21069 -2.21068,4.10556 -1.26325,1.89488 -3.15813,3.47394 -1.89487,1.26324 -4.42137,2.21068 -2.21068,0.63163 -5.05299,0.63163 h -0.31581 z m 0,-30.94959 L 638.41911,684 h 0.31581 q 2.84231,0 5.05299,0.94744 2.5265,0.63162 4.42137,2.21068 1.89488,1.26325 3.15813,3.15812 1.57906,1.89488 2.21068,4.42137 0.94744,2.21069 0.94744,5.053 v 0.31581 l -0.31581,0.31581 H 638.1033 v 0 q 0,0 0,0 0,0 0,0 0,0 0,0 0,0 0,0 0,0 0,0 v 0 z m 1.26324,0 v 16.10642 0 q 0,0 0,0 0,0 0,0 0,0 0,0 0,0 0,0 0,0 0,0 v 0 h -16.10642 l -0.31581,-0.31581 v -0.31581 q 0,-2.84231 0.63163,-5.053 0.94743,-2.52649 2.21068,-4.42137 1.57906,-1.89487 3.47394,-3.15812 1.89487,-1.57906 4.10555,-2.21068 Q 635.89261,684 638.73492,684 h 0.31581 z m 0,-0.63162 L 639.05073,684 h -0.31581 q -2.84231,0 -5.36881,-0.63162 -2.21068,-0.94744 -4.10555,-2.21069 -1.89488,-1.57906 -3.47394,-3.47393 -1.26325,-1.89488 -2.21068,-4.10556 -0.63163,-2.5265 -0.63163,-5.36881 v -0.31581 l 0.31581,-0.31581 h 16.10642 v 0 q 0,0 0,0 0,0 0,0 0,0 0,0 0,0 0,0 0,0 0,0 v 0 z m -1.26324,0 v -16.10642 0 q 0,0 0,0 0,0 0,0 0,0 0,0 0,0 0,0 0,0 0,0 v 0 h 16.10642 l 0.31581,0.31581 v 0.31581 q 0,2.84231 -0.94744,5.36881 -0.63162,2.21068 -2.21068,4.10556 -1.26325,1.89487 -3.15813,3.47393 -1.89487,1.26325 -4.42137,2.21069 Q 641.57723,684 638.73492,684 h -0.31581 z m 0,-30.94959 0.31581,-0.31582 h 0.31581 q 2.84231,0 5.05299,0.94744 2.5265,0.63163 4.42137,2.21069 1.89488,1.26324 3.15813,3.15812 1.57906,1.89487 2.21068,4.42137 0.94744,2.21068 0.94744,5.05299 v 0.31581 l -0.31581,0.31582 H 638.1033 v 0 q 0,0 0,0 0,0 0,0 0,0 0,0 0,0 0,0 0,0 0,0 v 0 z m 1.26324,0 v 16.10642 0 q 0,0 0,0 0,0 0,0 0,0 0,0 0,0 0,0 0,0 0,0 v 0 h -16.10642 l -0.31581,-0.31582 v -0.31581 q 0,-2.84231 0.63163,-5.05299 0.94743,-2.5265 2.21068,-4.42137 1.57906,-1.89488 3.47394,-3.15812 1.89487,-1.57906 4.10555,-2.21069 2.5265,-0.94744 5.36881,-0.94744 h 0.31581 z m 0,-0.63163 -0.31581,0.31581 h -0.31581 q -2.84231,0 -5.36881,-0.63162 -2.21068,-0.94744 -4.10555,-2.21068 -1.89488,-1.57907 -3.47394,-3.47394 -1.26325,-1.89487 -2.21068,-4.10556 -0.63163,-2.52649 -0.63163,-5.3688 v -0.31582 l 0.31581,-0.31581 h 16.10642 v 0 q 0,0 0,0 0,0 0,0 0,0 0,0 0,0 0,0 0,0 0,0 v 0 z m -1.26324,0 v -16.10642 0 q 0,0 0,0 0,0 0,0 0,0 0,0 0,0 0,0 0,0 0,0 v 0 h 16.10642 l 0.31581,0.31581 v 0.31582 q 0,2.84231 -0.94744,5.3688 -0.63162,2.21069 -2.21068,4.10556 -1.26325,1.89487 -3.15813,3.47394 -1.89487,1.26324 -4.42137,2.21068 -2.21068,0.63162 -5.05299,0.63162 h -0.31581 z m 0,-30.94959 0.31581,-0.31581 h 0.31581 q 2.84231,0 5.05299,0.94744 2.5265,0.63162 4.42137,2.21068 1.89488,1.26325 3.15813,3.15812 1.57906,1.89488 2.21068,4.42137 0.94744,2.21069 0.94744,5.053 v 0.31581 l -0.31581,0.31581 H 638.1033 v 0 q 0,0 0,0 0,0 0,0 0,0 0,0 0,0 0,0 0,0 0,0 v 0 z m 1.26324,0 v 16.10642 0 q 0,0 0,0 0,0 0,0 0,0 0,0 0,0 0,0 0,0 0,0 v 0 h -16.10642 l -0.31581,-0.31581 v -0.31581 q 0,-2.84231 0.63163,-5.053 0.94743,-2.52649 2.21068,-4.42137 1.57906,-1.89487 3.47394,-3.15812 1.89487,-1.57906 4.10555,-2.21068 2.5265,-0.94744 5.36881,-0.94744 h 0.31581 z m 31.58122,157.27445 -0.31581,0.31582 h -0.31581 q -2.84231,0 -5.36881,-0.63163 -2.21069,-0.94743 -4.10556,-2.21068 -1.89487,-1.57906 -3.47393,-3.47394 -1.26325,-1.89487 -2.21069,-4.10555 -0.63162,-2.5265 -0.63162,-5.36881 v -0.31581 l 0.31581,-0.31582 h 16.10642 v 0 q 0,0 0,0 0,0 0,0 0,0 0,0 0,0 0,0 0,0 0,0 v 0 z m -1.26325,0 v -16.10642 0 q 0,0 0,0 0,0 0,0 0,0 0,0 0,0 0,0 0,0 0,0 v 0 h 16.10642 l 0.31581,0.31582 v 0.31581 q 0,2.84231 -0.94743,5.36881 -0.63163,2.21068 -2.21069,4.10555 -1.26325,1.89488 -3.15812,3.47394 -1.89487,1.26325 -4.42137,2.21068 -2.21069,0.63163 -5.05299,0.63163 h -0.31582 z m 0,-30.94959 0.31581,-0.31581 h 0.31582 q 2.8423,0 5.05299,0.94744 2.5265,0.63162 4.42137,2.21068 1.89487,1.26325 3.15812,3.15812 1.57906,1.89488 2.21069,4.42137 0.94743,2.21069 0.94743,5.053 v 0.31581 l -0.31581,0.31581 h -16.10642 v 0 q 0,0 0,0 0,0 0,0 0,0 0,0 0,0 0,0 0,0 0,0 v 0 z m 1.26325,0 v 16.10642 0 q 0,0 0,0 0,0 0,0 0,0 0,0 0,0 0,0 0,0 0,0 v 0 h -16.10642 l -0.31581,-0.31581 v -0.31581 q 0,-2.84231 0.63162,-5.053 0.94744,-2.52649 2.21069,-4.42137 1.57906,-1.89487 3.47393,-3.15812 1.89487,-1.57906 4.10556,-2.21068 2.5265,-0.94744 5.36881,-0.94744 h 0.31581 z m 0,-126.95648 -0.31581,0.31581 h -0.31581 q -2.84231,0 -5.36881,-0.63163 -2.21069,-0.94743 -4.10556,-2.21068 -1.89487,-1.57906 -3.47393,-3.47393 -1.26325,-1.89488 -2.21069,-4.10556 -0.63162,-2.5265 -0.63162,-5.36881 v -0.31581 l 0.31581,-0.31581 h 16.10642 v 0 q 0,0 0,0 0,0 0,0 0,0 0,0 0,0 0,0 0,0 0,0 v 0 z m -1.26325,0 v -16.10642 0 q 0,0 0,0 0,0 0,0 0,0 0,0 0,0 0,0 0,0 0,0 v 0 h 16.10642 l 0.31581,0.31581 v 0.31581 q 0,2.84231 -0.94743,5.36881 -0.63163,2.21068 -2.21069,4.10556 -1.26325,1.89487 -3.15812,3.47393 -1.89487,1.26325 -4.42137,2.21068 -2.21069,0.63163 -5.05299,0.63163 h -0.31582 z m 0,-30.94959 0.31581,-0.31582 h 0.31582 q 2.8423,0 5.05299,0.94744 2.5265,0.63162 4.42137,2.21069 1.89487,1.26324 3.15812,3.15812 1.57906,1.89487 2.21069,4.42137 0.94743,2.21068 0.94743,5.05299 v 0.31581 l -0.31581,0.31582 h -16.10642 v 0 q 0,0 0,0 0,0 0,0 0,0 0,0 0,0 0,0 0,0 0,0 v 0 z m 1.26325,0 v 16.10642 0 q 0,0 0,0 0,0 0,0 0,0 0,0 0,0 0,0 0,0 0,0 v 0 h -16.10642 l -0.31581,-0.31582 v -0.31581 q 0,-2.84231 0.63162,-5.05299 0.94744,-2.5265 2.21069,-4.42137 1.57906,-1.89488 3.47393,-3.15812 1.89487,-1.57907 4.10556,-2.21069 2.5265,-0.94744 5.36881,-0.94744 h 0.31581 z m 31.58122,188.85566 -0.31582,0.31582 h -0.31581 q -2.84231,0 -5.36881,-0.63163 -2.21068,-0.94743 -4.10555,-2.21068 -1.89488,-1.57906 -3.47394,-3.47394 -1.26325,-1.89487 -2.21068,-4.10555 -0.63163,-2.5265 -0.63163,-5.36881 v -0.31581 l 0.31582,-0.31582 h 16.10642 v 0 q 0,0 0,0 0,0 0,0 0,0 0,0 0,0 0,0 0,0 0,0 v 0 z m -1.26325,0 v -16.10642 0 q 0,0 0,0 0,0 0,0 0,0 0,0 0,0 0,0 0,0 0,0 v 0 h 16.10642 l 0.31581,0.31582 v 0.31581 q 0,2.84231 -0.94744,5.36881 -0.63162,2.21068 -2.21068,4.10555 -1.26325,1.89488 -3.15812,3.47394 -1.89488,1.26325 -4.42137,2.21068 -2.21069,0.63163 -5.053,0.63163 h -0.31581 z m 0,-30.94959 0.31581,-0.31581 h 0.31581 q 2.84231,0 5.053,0.94744 2.52649,0.63162 4.42137,2.21068 1.89487,1.26325 3.15812,3.15812 1.57906,1.89488 2.21068,4.42137 0.94744,2.21069 0.94744,5.053 v 0.31581 l -0.31581,0.31581 h -16.10642 v 0 q 0,0 0,0 0,0 0,0 0,0 0,0 0,0 0,0 0,0 0,0 v 0 z m 1.26325,0 v 16.10642 0 q 0,0 0,0 0,0 0,0 0,0 0,0 0,0 0,0 0,0 0,0 v 0 h -16.10642 l -0.31582,-0.31581 v -0.31581 q 0,-2.84231 0.63163,-5.053 0.94743,-2.52649 2.21068,-4.42137 1.57906,-1.89487 3.47394,-3.15812 1.89487,-1.57906 4.10555,-2.21068 2.5265,-0.94744 5.36881,-0.94744 h 0.31581 z m 0,-126.95648 -0.31582,0.31581 h -0.31581 q -2.84231,0 -5.36881,-0.63163 -2.21068,-0.94743 -4.10555,-2.21068 -1.89488,-1.57906 -3.47394,-3.47393 -1.26325,-1.89488 -2.21068,-4.10556 -0.63163,-2.5265 -0.63163,-5.36881 v -0.31581 l 0.31582,-0.31581 h 16.10642 v 0 q 0,0 0,0 0,0 0,0 0,0 0,0 0,0 0,0 0,0 0,0 v 0 z m -1.26325,0 v -16.10642 0 q 0,0 0,0 0,0 0,0 0,0 0,0 0,0 0,0 0,0 0,0 v 0 h 16.10642 l 0.31581,0.31581 v 0.31581 q 0,2.84231 -0.94744,5.36881 -0.63162,2.21068 -2.21068,4.10556 -1.26325,1.89487 -3.15812,3.47393 -1.89488,1.26325 -4.42137,2.21068 -2.21069,0.63163 -5.053,0.63163 h -0.31581 z m 0,-30.94959 0.31581,-0.31582 h 0.31581 q 2.84231,0 5.053,0.94744 2.52649,0.63162 4.42137,2.21069 1.89487,1.26324 3.15812,3.15812 1.57906,1.89487 2.21068,4.42137 0.94744,2.21068 0.94744,5.05299 v 0.31581 l -0.31581,0.31582 h -16.10642 v 0 q 0,0 0,0 0,0 0,0 0,0 0,0 0,0 0,0 0,0 0,0 v 0 z m 1.26325,0 v 16.10642 0 q 0,0 0,0 0,0 0,0 0,0 0,0 0,0 0,0 0,0 0,0 v 0 h -16.10642 l -0.31582,-0.31582 v -0.31581 q 0,-2.84231 0.63163,-5.05299 0.94743,-2.5265 2.21068,-4.42137 1.57906,-1.89488 3.47394,-3.15812 1.89487,-1.57907 4.10555,-2.21069 2.5265,-0.94744 5.36881,-0.94744 h 0.31581 z m 31.58121,188.85566 -0.31581,0.31582 h -0.31581 q -2.84231,0 -5.36881,-0.63163 -2.21069,-0.94743 -4.10556,-2.21068 -1.89487,-1.57906 -3.47393,-3.47394 -1.26325,-1.89487 -2.21069,-4.10555 -0.63162,-2.5265 -0.63162,-5.36881 v -0.31581 l 0.31581,-0.31582 h 16.10642 v 0 q 0,0 0,0 0,0 0,0 0,0 0,0 0,0 0,0 0,0 0,0 v 0 z m -1.26325,0 v -16.10642 0 q 0,0 0,0 0,0 0,0 0,0 0,0 0,0 0,0 0,0 0,0 v 0 h 16.10642 l 0.31581,0.31582 v 0.31581 q 0,2.84231 -0.94743,5.36881 -0.63163,2.21068 -2.21069,4.10555 -1.26325,1.89488 -3.15812,3.47394 -1.89487,1.26325 -4.42137,2.21068 -2.21068,0.63163 -5.05299,0.63163 h -0.31582 z m 0,-30.94959 0.31581,-0.31581 h 0.31582 q 2.84231,0 5.05299,0.94744 2.5265,0.63162 4.42137,2.21068 1.89487,1.26325 3.15812,3.15812 1.57906,1.89488 2.21069,4.42137 0.94743,2.21069 0.94743,5.053 v 0.31581 l -0.31581,0.31581 h -16.10642 v 0 q 0,0 0,0 0,0 0,0 0,0 0,0 0,0 0,0 0,0 0,0 v 0 z m 1.26325,0 v 16.10642 0 q 0,0 0,0 0,0 0,0 0,0 0,0 0,0 0,0 0,0 0,0 v 0 h -16.10642 l -0.31581,-0.31581 v -0.31581 q 0,-2.84231 0.63162,-5.053 0.94744,-2.52649 2.21069,-4.42137 1.57906,-1.89487 3.47393,-3.15812 1.89487,-1.57906 4.10556,-2.21068 2.5265,-0.94744 5.36881,-0.94744 h 0.31581 z m 0,-126.95648 -0.31581,0.31581 h -0.31581 q -2.84231,0 -5.36881,-0.63163 -2.21069,-0.94743 -4.10556,-2.21068 -1.89487,-1.57906 -3.47393,-3.47393 -1.26325,-1.89488 -2.21069,-4.10556 -0.63162,-2.5265 -0.63162,-5.36881 v -0.31581 l 0.31581,-0.31581 h 16.10642 v 0 q 0,0 0,0 0,0 0,0 0,0 0,0 0,0 0,0 0,0 0,0 v 0 z m -1.26325,0 v -16.10642 0 q 0,0 0,0 0,0 0,0 0,0 0,0 0,0 0,0 0,0 0,0 v 0 h 16.10642 l 0.31581,0.31581 v 0.31581 q 0,2.84231 -0.94743,5.36881 -0.63163,2.21068 -2.21069,4.10556 -1.26325,1.89487 -3.15812,3.47393 -1.89487,1.26325 -4.42137,2.21068 -2.21068,0.63163 -5.05299,0.63163 h -0.31582 z m 0,-30.94959 0.31581,-0.31582 h 0.31582 q 2.84231,0 5.05299,0.94744 2.5265,0.63162 4.42137,2.21069 1.89487,1.26324 3.15812,3.15812 1.57906,1.89487 2.21069,4.42137 0.94743,2.21068 0.94743,5.05299 v 0.31581 l -0.31581,0.31582 h -16.10642 v 0 q 0,0 0,0 0,0 0,0 0,0 0,0 0,0 0,0 0,0 0,0 v 0 z m 1.26325,0 v 16.10642 0 q 0,0 0,0 0,0 0,0 0,0 0,0 0,0 0,0 0,0 0,0 v 0 h -16.10642 l -0.31581,-0.31582 v -0.31581 q 0,-2.84231 0.63162,-5.05299 0.94744,-2.5265 2.21069,-4.42137 1.57906,-1.89488 3.47393,-3.15812 1.89487,-1.57907 4.10556,-2.21069 2.5265,-0.94744 5.36881,-0.94744 h 0.31581 z m 31.58122,157.27445 -0.31582,0.31581 h -0.31581 q -2.84231,0 -5.3688,-0.63162 -2.21069,-0.94744 -4.10556,-2.21069 -1.89488,-1.57906 -3.47394,-3.47393 -1.26325,-1.89488 -2.21068,-4.10556 -0.63163,-2.5265 -0.63163,-5.36881 v -0.31581 l 0.31582,-0.31581 h 16.10642 v 0 q 0,0 0,0 0,0 0,0 0,0 0,0 0,0 0,0 0,0 0,0 v 0 z m -1.26325,0 v -16.10642 0 q 0,0 0,0 0,0 0,0 0,0 0,0 0,0 0,0 0,0 0,0 v 0 h 16.10642 l 0.31581,0.31581 v 0.31581 q 0,2.84231 -0.94744,5.36881 -0.63162,2.21068 -2.21068,4.10556 -1.26325,1.89487 -3.15812,3.47393 -1.89488,1.26325 -4.42137,2.21069 -2.21069,0.63162 -5.053,0.63162 h -0.31581 z m 0,-30.94959 0.31581,-0.31581 h 0.31581 q 2.84231,0 5.053,0.94743 2.52649,0.63163 4.42137,2.21069 1.89487,1.26325 3.15812,3.15812 1.57906,1.89487 2.21068,4.42137 0.94744,2.21068 0.94744,5.05299 v 0.31582 l -0.31581,0.31581 h -16.10642 v 0 q 0,0 0,0 0,0 0,0 0,0 0,0 0,0 0,0 0,0 0,0 v 0 z m 1.26325,0 v 16.10642 0 q 0,0 0,0 0,0 0,0 0,0 0,0 0,0 0,0 0,0 0,0 v 0 h -16.10642 l -0.31582,-0.31581 v -0.31582 q 0,-2.84231 0.63163,-5.05299 0.94743,-2.5265 2.21068,-4.42137 1.57906,-1.89487 3.47394,-3.15812 1.89487,-1.57906 4.10556,-2.21069 2.52649,-0.94743 5.3688,-0.94743 h 0.31581 z m 0,-63.79406 -0.31582,0.31581 h -0.31581 q -2.84231,0 -5.3688,-0.63162 -2.21069,-0.94744 -4.10556,-2.21068 -1.89488,-1.57907 -3.47394,-3.47394 -1.26325,-1.89487 -2.21068,-4.10556 -0.63163,-2.52649 -0.63163,-5.3688 v -0.31582 l 0.31582,-0.31581 h 16.10642 v 0 q 0,0 0,0 0,0 0,0 0,0 0,0 0,0 0,0 0,0 0,0 v 0 z m -1.26325,0 v -16.10642 0 q 0,0 0,0 0,0 0,0 0,0 0,0 0,0 0,0 0,0 0,0 v 0 h 16.10642 l 0.31581,0.31581 v 0.31582 q 0,2.84231 -0.94744,5.3688 -0.63162,2.21069 -2.21068,4.10556 -1.26325,1.89487 -3.15812,3.47394 -1.89488,1.26324 -4.42137,2.21068 -2.21069,0.63162 -5.053,0.63162 h -0.31581 z m 0,-30.94959 0.31581,-0.31581 h 0.31581 q 2.84231,0 5.053,0.94744 2.52649,0.63162 4.42137,2.21068 1.89487,1.26325 3.15812,3.15812 1.57906,1.89488 2.21068,4.42137 0.94744,2.21069 0.94744,5.053 v 0.31581 l -0.31581,0.31581 h -16.10642 v 0 q 0,0 0,0 0,0 0,0 0,0 0,0 0,0 0,0 0,0 0,0 v 0 z m 1.26325,0 v 16.10642 0 q 0,0 0,0 0,0 0,0 0,0 0,0 0,0 0,0 0,0 0,0 v 0 h -16.10642 l -0.31582,-0.31581 v -0.31581 q 0,-2.84231 0.63163,-5.053 0.94743,-2.52649 2.21068,-4.42137 1.57906,-1.89487 3.47394,-3.15812 1.89487,-1.57906 4.10556,-2.21068 2.52649,-0.94744 5.3688,-0.94744 h 0.31581 z"
     id="text1"
     style="font-size:240px;font-family:'Bitcount Single';-inkscape-font-specification:'Bitcount Single';fill:#eb7d00;stroke-width:69.2155"
     aria-label="PHC"
     inkscape:label="PHC" />
</svg>
